<?xml version="1.0" encoding="UTF-8"?>
<svg id="Layer_1" data-name="Layer 1" xmlns="http://www.w3.org/2000/svg" viewBox="0 0 1000 1000">
  <defs>
    <style>
      .cls-1 {
        fill: #fff;
        stroke-width: 0px;
      }
    </style>
  </defs>
  <g>
    <path class="cls-1" d="M502.85,414.31c4,5.2,8.36,10.1,13.14,14.6,1.22,1.16,2.5,2.28,3.8,3.38.42.36.85.71,1.29,1.05,1.38,1.12,0,12.5,0,14.33,0,4.39-1.21,10.77,0,14.95.64,2.24,1.53,2.03,4.12,2.63,5.4,1.24,10.79,2.51,16.17,3.9,4.73,1.22,10.14,2.99,14.91.99,8.21-3.44,3.8-13.57,3.79-20.07-.01-1.73-1.07-14.92,0-15.5,1.87-.99,3.84-1.79,5.93-2.32,3.2-.82,6.64-1.09,10.16-.93,3.52.19,7.12.79,10.66,1.75,1.77.48,3.54,1.04,5.27,1.68.39.15.78.32,1.17.46,1.32.52.23,10.35.19,11.61-.14,4.17-.3,5.43,4.02,6.41,15.71,3.56,31.72,5.48,47.56,8.33l11.55,198.92,1.74-195.66,28.26,7.28,44.32,15.12,8.58,2.92v-9.05l-.12-22.93-.07-11.62c-.06-2.16-.24-4.72-1.13-7.49-.91-2.77-2.47-5.25-4.16-7.18-1.7-1.94-3.48-3.42-5.14-4.72-1.67-1.3-3.22-2.4-4.61-3.47s-2.58-2.08-3.48-3.06c-.91-.99-1.49-1.87-1.97-2.95-.95-2.12-1.22-4.86-.82-7.69.2-1.42.56-2.87,1.06-4.27.51-1.42,1.12-2.7,1.93-4.12,3.17-5.56,8.38-10.66,13.71-16.55,5.34-5.96,10.25-12.36,14.53-19.11,5.46-8.47,9.96-17.42,13.89-26.51.87,2.1,1.78,4.18,2.75,6.26,1.7,3.67,3.52,7.32,5.5,10.92,1.99,3.59,4.18,7.1,6.5,10.53,1.16,1.72,2.39,3.38,3.63,5.06l1.92,2.46c.57.76,1.44,1.81,2.2,2.61,3.1,3.35,6.13,6,9.12,8.63,2.98,2.6,5.87,5.09,8.59,7.61,7.92,7.3,12.11,13.97,11.99,25-.06,5.87-.86,8.96-4.5,13.36-6.47,7.86-4.66,17.44-4.49,26.98.14,8.06.27,16.11.41,24.16.33,18.27.74,36.66,1.19,54.99.55,22.6,1.18,45.21,1.93,67.81.75,22.42,1.25,44.9,2.67,67.3.21-2.99.33-5.99.47-8.98,1.26-24.78,2.24-49.56,3.16-74.36.92-24.79,1.68-49.57,2.35-74.37.39-13.88.73-27.61,1.04-41.46.14-6.08.28-12.15.42-18.22.07-3.58-.72-8.54.27-12,.44-1.57,1.83-2.72,2.97-3.99,3.15-3.51,5.14-6.8,6.06-11.48,1.8-9.29,1.85-22-2.55-30.61-1.2-2.33-2.56-4.31-3.97-6.12-2.83-3.6-5.84-6.59-8.83-9.41-3-2.79-6.03-5.4-8.94-7.94-2.88-2.52-5.74-5.02-7.95-7.4-.58-.62-.96-1.06-1.59-1.84l-1.73-2.13c-1.11-1.45-2.22-2.9-3.27-4.4-8.53-11.94-14.77-25.69-20.99-39.89l-7.14-16.29-5.43,16.47c-5.14,14.12-11,27.8-18.87,40.11-3.9,6.18-8.33,11.96-13.16,17.41-2.44,2.73-5.12,5.51-7.78,8.57-2.66,3.06-5.31,6.42-7.52,10.3-1.09,1.9-2.13,4.08-2.9,6.27-.77,2.19-1.35,4.48-1.67,6.85-.64,4.71-.33,9.9,1.84,14.8,1.05,2.41,2.67,4.74,4.36,6.54,1.7,1.83,3.46,3.26,5.11,4.53,3.3,2.49,6.24,4.48,7.89,6.39.82.95,1.31,1.79,1.6,2.66.3.87.46,2.17.51,3.82l.11,11.33.11,13.72-35.74-12.79-.19-.07-.31-.08-31.68-8.67-.36-49.63c-.04-4.56-.03-8.74.58-12.35.31-1.81.73-3.41,1.34-4.95.64-1.61,1.61-3.51,2.68-5.78,1.05-2.28,2.22-5,2.9-8.29.68-3.4.56-6.72.19-9.54-.38-2.85-.97-5.31-1.42-7.46-.47-2.14-.8-4-1.05-6.02-.99-7.94-.36-16.07,1.84-23.69.51-1.85,1.34-4.12,2.01-7.02.66-2.86,1.18-6.61.32-10.66-.82-3.95-2.72-7.32-4.75-9.89-2.04-2.61-4.25-4.58-6.38-6.31-1.07-.86-2.11-1.62-3.12-2.35-1.01-.74-2.03-1.46-3.08-2.15-1.04-.72-2.1-1.4-3.16-2.04-1.06-.67-2.14-1.32-3.24-1.94-4.35-2.5-8.87-4.69-13.53-6.57-6.73-2.71-13.76-4.73-20.94-6.04-.47-9.58.81-19.32,3.83-28.47.95-2.93,1.97-5.53,3.33-8.46l2.16-4.73c.76-1.72,1.59-3.67,2.3-6.13.69-2.42,1.25-5.67.71-9.23-.24-1.76-.79-3.5-1.48-5.04-.69-1.56-1.52-2.87-2.37-4.06-1.73-2.33-3.52-3.99-5.25-5.43-.17-.15-.35-.27-.52-.41v-5.43s-.01-2.92-.01-2.92l-1.59-2.5c-1.45-2.29-2.99-4.81-4.45-7.25-1.48-2.47-2.93-4.94-4.34-7.44-2.83-5.01-5.57-10.05-8.14-15.14-2.57-5.08-4.98-10.21-7.11-15.35-2.13-5.13-3.97-10.32-5.22-15.27l-7.33-29.22-11.71,27.95-.38.91-.45,1.03-.97,2.11c-.67,1.41-1.38,2.81-2.11,4.21-1.46,2.79-3.07,5.51-4.74,8.16-1.55,2.46-3.22,4.82-4.96,7.08-.43-.45-.86-.91-1.3-1.38-2.71-2.94-5.28-6.08-7.74-9.34-4.91-6.5-9.28-13.5-13.17-20.78-3.88-7.3-7.28-14.88-10.19-22.69-2.92-7.8-5.37-15.79-7.41-23.91l-8.82-35.32-8.82,35.32c-2.03,8.13-4.49,16.11-7.41,23.91-2.91,7.81-6.31,15.39-10.19,22.69-3.89,7.28-8.26,14.28-13.17,20.78-2.46,3.26-5.03,6.4-7.74,9.34-.43.47-.86.93-1.3,1.38-1.74-2.27-3.41-4.63-4.96-7.08-1.68-2.64-3.28-5.36-4.74-8.16-.73-1.39-1.43-2.79-2.11-4.21l-.97-2.11-.45-1.03-.38-.91-11.71-27.95-7.33,29.22c-1.24,4.95-3.09,10.14-5.22,15.27-2.13,5.14-4.54,10.27-7.11,15.35-2.56,5.09-5.3,10.14-8.14,15.14-1.41,2.5-2.87,4.97-4.34,7.44-1.45,2.44-2.99,4.96-4.45,7.25l-1.59,2.5v8.19s-.01.16-.01.16c-.17.14-.35.26-.52.41-1.73,1.43-3.52,3.1-5.25,5.43-.85,1.19-1.69,2.5-2.37,4.06-.68,1.54-1.23,3.28-1.48,5.04-.55,3.56.02,6.81.71,9.23.71,2.47,1.54,4.42,2.3,6.13l2.16,4.73c1.36,2.93,2.38,5.53,3.33,8.46,3.01,9.16,4.3,18.9,3.83,28.47-7.18,1.31-14.21,3.33-20.94,6.04-4.66,1.88-9.18,4.07-13.53,6.57-1.1.62-2.17,1.26-3.24,1.94-1.06.64-2.12,1.33-3.16,2.04-1.04.68-2.07,1.41-3.08,2.15-1.01.73-2.04,1.49-3.12,2.35-2.13,1.73-4.33,3.7-6.38,6.31-2.03,2.56-3.93,5.93-4.75,9.89-.86,4.06-.35,7.81.32,10.66.67,2.9,1.51,5.16,2.01,7.02,2.2,7.62,2.83,15.76,1.84,23.69-.25,2.01-.58,3.88-1.05,6.02-.45,2.15-1.04,4.62-1.42,7.46-.37,2.81-.5,6.13.19,9.54.67,3.3,1.84,6.02,2.9,8.29,1.06,2.27,2.03,4.16,2.68,5.78.61,1.54,1.03,3.14,1.34,4.95.61,3.61.62,7.79.58,12.35l-.36,49.63-31.68,8.67-.31.08-.19.07-35.74,12.79.11-13.72.11-11.33c.04-1.64.21-2.94.51-3.82.3-.86.78-1.71,1.6-2.66,1.65-1.91,4.59-3.9,7.89-6.39,1.65-1.28,3.41-2.7,5.11-4.53,1.7-1.8,3.31-4.13,4.36-6.54,2.17-4.9,2.49-10.09,1.84-14.8-.32-2.37-.9-4.66-1.67-6.85-.77-2.19-1.81-4.37-2.9-6.27-2.21-3.88-4.87-7.24-7.52-10.3-2.66-3.06-5.33-5.84-7.78-8.57-4.84-5.45-9.26-11.23-13.16-17.41-7.87-12.31-13.73-25.99-18.87-40.11l-5.43-16.47-7.15,16.29c-6.22,14.2-12.47,27.95-20.99,39.89-1.04,1.51-2.16,2.95-3.27,4.4l-1.73,2.13c-.63.78-1.01,1.22-1.59,1.84-2.2,2.38-5.07,4.88-7.95,7.4-2.91,2.54-5.93,5.14-8.94,7.94-2.99,2.82-6,5.81-8.83,9.41-1.41,1.81-2.77,3.79-3.97,6.12-4.41,8.61-4.35,21.32-2.55,30.61.92,4.68,2.91,7.97,6.06,11.48,1.14,1.28,2.53,2.42,2.97,3.99.99,3.47.2,8.42.27,12,.14,6.07.28,12.14.42,18.22.32,13.85.65,27.58,1.04,41.46.67,24.8,1.43,49.58,2.35,74.37.92,24.8,1.9,49.58,3.16,74.36.15,2.99.26,5.99.47,8.98,1.41-22.39,1.92-44.88,2.67-67.3.75-22.6,1.38-45.21,1.93-67.81.45-18.33.86-36.72,1.19-54.99.14-8.05.27-16.1.41-24.16.17-9.54,1.98-19.12-4.49-26.98-3.64-4.4-4.44-7.49-4.5-13.36-.12-11.02,4.07-17.69,11.99-25,2.72-2.52,5.61-5.01,8.59-7.61,2.98-2.63,6.02-5.28,9.12-8.63.76-.8,1.63-1.85,2.2-2.61l1.92-2.46c1.23-1.68,2.47-3.34,3.63-5.06,2.32-3.42,4.51-6.93,6.5-10.53,1.98-3.59,3.8-7.25,5.5-10.92.97-2.08,1.88-4.16,2.75-6.26,3.93,9.09,8.43,18.04,13.89,26.51,4.28,6.74,9.19,13.14,14.53,19.11,5.33,5.88,10.54,10.98,13.71,16.55.81,1.42,1.42,2.7,1.93,4.12.51,1.4.86,2.85,1.06,4.27.4,2.83.13,5.57-.82,7.69-.48,1.09-1.06,1.96-1.97,2.95-.9.98-2.1,1.99-3.48,3.06s-2.94,2.17-4.61,3.47c-1.67,1.3-3.45,2.78-5.14,4.72-1.7,1.93-3.26,4.4-4.16,7.18-.89,2.77-1.06,5.33-1.13,7.49l-.07,11.62-.12,22.93v9.05l8.58-2.92,44.32-15.12,28.26-7.28,1.74,195.66,11.55-198.92c15.84-2.85,31.85-4.76,47.56-8.33,4.31-.98,4.15-2.23,4.02-6.41-.04-1.26-1.13-11.1.19-11.61.39-.15.78-.32,1.17-.46,1.73-.63,3.5-1.19,5.27-1.68,3.54-.96,7.14-1.56,10.66-1.75,3.52-.16,6.96.11,10.16.93,2.1.53,4.07,1.33,5.93,2.32,1.07.58.01,13.77,0,15.5-.01,6.49-4.42,16.63,3.79,20.07,4.77,2,10.18.23,14.91-.99,5.37-1.39,10.77-2.66,16.17-3.9,2.59-.6,3.48-.39,4.12-2.63,1.21-4.18,0-10.56,0-14.95,0-1.83-1.38-13.22,0-14.33.43-.35.86-.7,1.29-1.05,1.31-1.11,2.58-2.22,3.8-3.38,2.46-2.31,4.81-4.71,7.04-7.21,1.6-1.79,3.25-3.54,4.69-5.47s2.56-4.18,3.68-6.38l3.43,4.46ZM185.74,427.59h0s-.01.01-.01,0h.01ZM500,384.43c.12.25-.95,1.9-1.11,2.22-.43.82-.87,1.64-1.33,2.44-3.01,5.21-6.42,10.27-9.96,15.14-2.1,2.89-4.36,5.67-6.74,8.34-1.97,2.21-4.05,4.32-6.2,6.33-1.06,1.01-2.16,1.98-3.27,2.92-.55.45-1.11.92-1.67,1.35l-.81.63-.72.53-2.97,2.19v25.99l-11.59,1.69v-26.96l-2.85-2.03c-4.05-2.88-8.65-5.02-13.4-6.21-4.74-1.21-9.56-1.55-14.22-1.33-4.67.24-9.2,1.02-13.56,2.2-2.18.59-4.32,1.28-6.44,2.06-1.06.4-2.11.8-3.16,1.25l-1.58.7c-.56.25-1,.46-1.72.82l-3.67,1.89v14.26l-37.21,6.66,1.58-46.44c.14-4.57.35-9.59-.39-15.05-.38-2.71-1.03-5.57-2.04-8.31-.98-2.67-2.07-4.87-2.89-6.78-.82-1.88-1.36-3.45-1.55-4.65-.19-1.1-.15-2.42.12-4.12.26-1.7.77-3.68,1.34-5.99.58-2.31,1.12-4.94,1.5-7.46,1.55-10.19,1.03-20.68-1.57-30.72-.65-2.57-1.33-4.64-1.63-6.22-.32-1.59-.26-2.51-.13-2.94.15-.53.5-1.29,1.34-2.28.8-.97,2.03-2.08,3.49-3.18.72-.56,1.54-1.13,2.41-1.71.84-.59,1.71-1.17,2.58-1.71.87-.57,1.75-1.11,2.65-1.61.89-.54,1.79-1.04,2.71-1.53,3.64-1.96,7.41-3.67,11.28-5.1,7.74-2.88,15.86-4.66,24.03-5.27l7.86-.58,1.16-7.91c.7-4.71,1.03-9.46,1.03-14.2,0-10.44-1.67-20.84-4.9-30.75-.28-.91-.6-1.8-.93-2.69-.31-.9-.64-1.79-1-2.7-.72-1.79-1.46-3.52-2.21-5.16l-2.09-4.56c-.62-1.38-1.1-2.6-1.32-3.41-.12-.41-.16-.66-.18-.8.03-.05.08-.13.17-.25.28-.41.97-1.13,1.88-1.87s2.01-1.53,3.18-2.3l.93-.6.73-.74c1.12-1.12,2.16-2.82,2.6-4.59.11-.44.19-.89.24-1.31.03-.22.05-.43.06-.63l.02-.52v-1.31s.01-3.98.01-3.98v-2.4c1.11-1.77,2.16-3.51,3.22-5.28,1.55-2.59,3.07-5.21,4.55-7.83,2.98-5.25,5.87-10.57,8.6-16.01,2.09-4.13,4.1-8.34,6-12.64,1.77,2.74,3.67,5.42,5.7,8.03,2.27,2.98,4.83,5.83,7.47,8.61l6.12,6.43,7.01-5.43.55-.42.41-.33.77-.64,1.44-1.25c.93-.82,1.82-1.65,2.7-2.5,1.73-1.68,3.4-3.38,5-5.13,3.2-3.48,6.16-7.1,8.98-10.82,5.61-7.44,10.51-15.3,14.85-23.43,3.25-6.09,6.15-12.33,8.75-18.68,2.59,6.35,5.5,12.59,8.75,18.68,4.34,8.13,9.24,15.99,14.85,23.43,2.81,3.72,5.78,7.34,8.98,10.82,1.59,1.75,3.27,3.46,5,5.13.87.84,1.77,1.68,2.7,2.5l1.44,1.25.77.64.41.33.55.42,7.01,5.43,6.12-6.43c2.65-2.78,5.21-5.63,7.47-8.61,2.03-2.61,3.93-5.29,5.7-8.03,1.9,4.3,3.91,8.5,6,12.64,2.73,5.44,5.62,10.76,8.6,16.01,1.49,2.62,3,5.24,4.55,7.83,1.06,1.77,2.12,3.51,3.21,5.28v2.4s.01,3.98.01,3.98v.68s.01.62.01.62l.02.52c.01.2.03.41.06.63.05.42.14.86.24,1.31.44,1.77,1.49,3.48,2.6,4.59l.73.74.93.6c1.17.77,2.28,1.56,3.18,2.3.91.74,1.59,1.45,1.88,1.87.08.13.14.2.17.25-.02.14-.06.39-.18.8-.22.81-.7,2.03-1.32,3.41l-2.09,4.56c-.75,1.64-1.5,3.37-2.21,5.16-.36.91-.7,1.8-1,2.7-.33.89-.64,1.78-.93,2.69-3.24,9.91-4.9,20.31-4.9,30.75,0,4.73.34,9.48,1.03,14.2l1.16,7.91,7.86.58c8.17.61,16.29,2.39,24.03,5.27,3.87,1.43,7.64,3.14,11.28,5.1.92.48,1.82.99,2.71,1.53.9.51,1.77,1.04,2.65,1.61.87.54,1.74,1.12,2.58,1.71.87.58,1.7,1.15,2.41,1.71,1.45,1.11,2.69,2.21,3.49,3.18.84.99,1.19,1.75,1.34,2.28.14.43.19,1.35-.13,2.94-.31,1.58-.98,3.65-1.63,6.22-2.6,10.04-3.12,20.53-1.57,30.72.38,2.52.92,5.15,1.5,7.46.57,2.31,1.07,4.29,1.34,5.99.26,1.7.31,3.02.12,4.12-.19,1.2-.73,2.77-1.55,4.65-.82,1.91-1.91,4.11-2.89,6.78-1.01,2.74-1.67,5.61-2.04,8.31-.74,5.46-.53,10.48-.39,15.05l1.58,46.44-37.21-6.66v-14.26l-3.67-1.89c-.72-.36-1.16-.57-1.72-.82l-1.58-.7c-1.05-.45-2.1-.85-3.16-1.25-2.12-.78-4.26-1.46-6.44-2.06-4.36-1.18-8.89-1.96-13.56-2.2-4.66-.22-9.47.12-14.22,1.33-4.75,1.19-9.36,3.33-13.4,6.21l-2.85,2.03v26.96l-11.59-1.69v-25.99l-2.97-2.19-.72-.53-.81-.63c-.56-.43-1.12-.9-1.67-1.35-1.11-.94-2.2-1.91-3.27-2.92-2.15-2.01-4.23-4.12-6.2-6.33-1.96-2.22-3.88-4.49-5.65-6.87-2.13-2.79-4.05-5.73-5.97-8.67-2.7-4.15-5.36-8.14-7.53-12.59ZM814.26,427.6h0s.01-.01.01-.01c0,.01-.01.01-.01.01Z"/>
    <path class="cls-1" d="M556.08,640.36c-.06-.75-.16-1.49-.24-2.23l-.49-4.46-.99-8.95c-.25-3-.88-5.94-1.35-8.91l-1.51-8.92c-.56-2.96-1.33-5.89-1.99-8.85l-1.03-4.43c-.18-.74-.33-1.48-.53-2.21l-.66-2.18-2.66-8.75c-.4-1.48-1.03-2.88-1.56-4.32l-1.66-4.3-.83-2.16c-.28-.72-.54-1.44-.9-2.13l-2-4.2-2.01-4.21-2.36-4.08c-.8-1.35-1.56-2.73-2.4-4.07l-2.74-3.92-1.38-1.96c-.46-.66-1.02-1.25-1.53-1.88l-3.14-3.73-3.52-3.5c-.57-.6-1.22-1.14-1.88-1.68l-1.96-1.62c-.63-.56-1.36-1.05-2.09-1.55-.73-.5-1.44-1-2.19-1.48l-2.41-1.37c-.41-.22-.91-.44-1.37-.65l-.7-.32c-.32-.13-.7-.26-1.05-.38l-2.23-.76-2.66,1.06h0c-.36.17-.53.26-.76.38l-.62.33c-.41.22-.8.44-1.17.66-.77.44-1.49.89-2.23,1.34-1.44.92-2.84,1.87-4.2,2.84-2.73,1.95-5.3,4.05-7.77,6.23-4.94,4.37-9.45,9.13-13.5,14.22-4.05,5.08-7.69,10.45-10.87,16.03-3.17,5.59-5.9,11.4-8.25,17.31-2.38,5.91-4.18,12-5.8,18.09-.68,3.08-1.5,6.12-2.01,9.23l-.85,4.63-.65,4.66c-1.68,12.42-2.06,24.91-1.44,37.29.61-12.38,2.23-24.68,5.07-36.62l1.08-4.47,1.27-4.41c.79-2.95,1.87-5.81,2.82-8.7,2.14-5.7,4.43-11.32,7.23-16.67,2.78-5.36,5.86-10.52,9.31-15.39,3.46-4.87,7.28-9.44,11.39-13.66,4.11-4.23,8.57-8.07,13.28-11.47,2.35-1.69,4.77-3.29,7.24-4.71,1.23-.71,2.48-1.38,3.72-2.01.27-.13.54-.26.81-.39l.35.15,1.61.87c.54.29,1.09.57,1.62.95l1.61,1.07c.54.35,1.08.71,1.59,1.15l3.11,2.51,2.93,2.84c.48.49,1.01.92,1.46,1.45l1.36,1.57,2.74,3.15c.86,1.1,1.66,2.27,2.5,3.4l2.5,3.44,2.23,3.66,2.24,3.67c.39.6.71,1.25,1.04,1.9l.98,1.93,1.97,3.87c.64,1.3,1.37,2.56,1.89,3.93l3.4,8.08.85,2.03c.27.68.49,1.38.73,2.08l1.43,4.17c.93,2.79,1.98,5.55,2.82,8.38l2.37,8.55c.76,2.86,1.67,5.69,2.23,8.61l1.89,8.71.95,4.36c.15.73.32,1.45.46,2.18l.36,2.2,2.88,17.66-1.05-17.9-.13-2.24ZM500.93,541.11l.05.02h-.05s-.03-.02,0-.02Z"/>
  </g>
  <g>
    <g>
      <path class="cls-1" d="M169.58,885.85v-139.17h64.61c7.69,0,14.51,1.66,20.48,4.97,5.96,3.31,10.64,7.92,14.02,13.82,3.38,5.9,5.07,12.56,5.07,19.98,0,6.76-1.56,12.82-4.67,18.19-3.12,5.37-6.53,9.24-10.24,11.63v.99c4.24,2.26,8.12,6.13,11.63,11.63,3.51,5.5,5.27,11.9,5.27,19.19s-1.69,14.08-5.07,19.98c-3.38,5.9-8.05,10.51-14.02,13.82-5.96,3.31-12.79,4.97-20.48,4.97h-66.6ZM231.01,804.93c4.77,0,8.78-1.66,12.03-4.97,3.25-3.31,4.87-7.55,4.87-12.72s-1.62-9.21-4.87-12.52c-3.25-3.31-7.26-4.97-12.03-4.97h-35.59v35.19h35.59ZM233,862.78c4.77,0,8.78-1.66,12.03-4.97,3.25-3.31,4.87-7.49,4.87-12.53s-1.62-9.41-4.87-12.72c-3.25-3.31-7.26-4.97-12.03-4.97h-37.58v35.19h37.58Z"/>
      <path class="cls-1" d="M393.84,885.85h-93.24v-139.17h93.24v23.66h-67.4v34.2h63.42v23.06h-63.42v34.59h67.4v23.66Z"/>
      <path class="cls-1" d="M418.69,885.85v-139.17h49.7c12.59,0,24.02,3.02,34.29,9.05,10.27,6.03,18.36,14.35,24.26,24.95,5.9,10.61,8.85,22.47,8.85,35.59s-2.95,24.98-8.85,35.59c-5.9,10.61-13.99,18.92-24.26,24.95-10.27,6.03-21.7,9.05-34.29,9.05h-49.7ZM468.39,860.99c7.69,0,14.71-1.89,21.07-5.67,6.36-3.78,11.36-9.05,15.01-15.81,3.64-6.76,5.47-14.51,5.47-23.26s-1.82-16.5-5.47-23.26c-3.65-6.76-8.65-12.03-15.01-15.81-6.36-3.78-13.39-5.67-21.07-5.67h-23.86v89.46h23.86Z"/>
      <path class="cls-1" d="M652.29,885.85h-93.24v-139.17h93.24v23.66h-67.4v34.2h63.42v23.06h-63.42v34.59h67.4v23.66Z"/>
      <path class="cls-1" d="M702.98,885.85h-25.85v-139.17h41.15l33.4,99.6h3.98l33.6-99.6h41.15v139.17h-25.85v-97.81h-3.98l-33,97.81h-27.64l-33-97.81h-3.98v97.81Z"/>
    </g>
    <g>
      <path class="cls-1" d="M172.36,966.8h-2.79v-55.72h5.65l31.36,52.62h1.59v-52.62h2.79v55.72h-5.65l-31.36-52.62h-1.59v52.62Z"/>
      <path class="cls-1" d="M283.09,966.8h-34.07v-55.72h34.07v2.71h-31.28v23.48h29.69v2.63h-29.69v24.2h31.28v2.71Z"/>
      <path class="cls-1" d="M321.93,966.8h-2.79v-55.72h2.79v26.59l27.7-26.59h3.74l-28.82,27.54,30.41,28.18h-3.74l-29.29-27.22v27.22Z"/>
      <path class="cls-1" d="M398.43,943.47l24.44,23.32h-3.74l-24.44-23.32h-8.04v23.32h-2.79v-55.72h21.57c3.18,0,6.01.68,8.48,2.03,2.47,1.35,4.38,3.26,5.73,5.73,1.35,2.47,2.03,5.29,2.03,8.48s-.68,6-2.03,8.44c-1.35,2.44-3.26,4.34-5.73,5.69-2.47,1.35-5.29,2.03-8.48,2.03h-7ZM386.65,940.85h18.79c3.98,0,7.22-1.23,9.71-3.7,2.49-2.47,3.74-5.74,3.74-9.83s-1.25-7.36-3.74-9.83c-2.49-2.47-5.73-3.7-9.71-3.7h-18.79v27.06Z"/>
      <path class="cls-1" d="M491.24,966.8h-34.07v-55.72h34.07v2.71h-31.28v23.48h29.69v2.63h-29.69v24.2h31.28v2.71Z"/>
      <path class="cls-1" d="M544.34,966.8h-2.79v-53.01h-19.82v-2.71h42.43v2.71h-19.82v53.01Z"/>
      <path class="cls-1" d="M599.42,966.8h-2.79v-55.72h5.65l31.36,52.62h1.59v-52.62h2.79v55.72h-5.65l-31.36-52.62h-1.59v52.62Z"/>
      <path class="cls-1" d="M678.86,966.8h-2.79v-55.72h2.79v55.72Z"/>
      <path class="cls-1" d="M719.7,966.8h-2.79v-55.72h5.65l31.36,52.62h1.59v-52.62h2.79v55.72h-5.65l-31.36-52.62h-1.59v52.62Z"/>
      <path class="cls-1" d="M830.42,966.8h-34.07v-55.72h34.07v2.71h-31.28v23.48h29.69v2.63h-29.69v24.2h31.28v2.71Z"/>
    </g>
  </g>
</svg>