<?xml version="1.0" encoding="UTF-8"?>
<svg id="Layer_1" data-name="Layer 1" xmlns="http://www.w3.org/2000/svg" viewBox="0 0 1000 1000">
  <defs>
    <style>
      .cls-1 {
        fill: #033a14;
        stroke-width: 0px;
      }
    </style>
  </defs>
  <path class="cls-1" d="M500,989.29c-269.88,0-489.45-219.57-489.45-489.45S230.12,10.39,500,10.39s489.45,219.57,489.45,489.45-219.57,489.45-489.45,489.45ZM500,41.54c-252.71,0-458.3,205.59-458.3,458.3s205.59,458.3,458.3,458.3,458.3-205.6,458.3-458.3S752.7,41.54,500,41.54Z"/>
  <g>
    <path class="cls-1" d="M500,511.44c-73.67,0-133.61-59.94-133.61-133.61s59.94-133.61,133.61-133.61,133.61,59.94,133.61,133.61-59.94,133.61-133.61,133.61ZM500,275.36c-56.5,0-102.46,45.96-102.46,102.46s45.96,102.46,102.46,102.46,102.46-45.96,102.46-102.46-45.96-102.46-102.46-102.46Z"/>
    <path class="cls-1" d="M759.6,739.89h-31.15c0-125.97-102.48-228.46-228.45-228.46s-228.45,102.48-228.45,228.46h-31.15c0-143.15,116.46-259.61,259.6-259.61s259.6,116.46,259.6,259.61Z"/>
  </g>
</svg>